<svg width="20" height="20" xmlns="http://www.w3.org/2000/svg">
  <path d="M10 15.635c.33 0 .612.295.612.639v1.89c0 .344-.282.638-.612.638s-.612-.294-.612-.638v-1.89c0-.344.282-.639.612-.639zm-4.488-1.783c.27.262.27.68 0 .94l-1.339 1.257c-.27.262-.707.262-.979 0-.27-.26-.27-.678 0-.94l1.339-1.257c.271-.261.709-.261.979 0zm9.955 0l1.339 1.257c.27.262.27.68 0 .94-.271.262-.709.262-.978 0l-1.339-1.257c-.27-.262-.27-.678 0-.94.27-.261.707-.261.978 0zm-4.488-5.348c.216.215.216.562 0 .777l-1.955 1.83c-.216.215-.566.215-.782 0-.216-.215-.216-.562 0-.777l1.955-1.83c.216-.215.566-.215.782 0zm3.275 1.83l1.955-1.83c.216-.215.566-.215.782 0 .216.215.216.562 0 .777l-1.955 1.83c-.216.215-.566.215-.782 0-.216-.215-.216-.562 0-.777zM10 19.872c.552 0 1-.449 1-.998v-5.45l2.538 2.376c.39.365 1.002.365 1.391 0 .39-.364.39-.954 0-1.318l-4.335-4.058a.975.975 0 00-.694-.292.975.975 0 00-.694.292L4.871 14.43c-.39.364-.39.954 0 1.318.39.365 1.002.365 1.391 0L8.8 13.374v5.45c0 .55.448.998 1 .998" fill="#FFF" fill-rule="evenodd"/>
</svg> 